# xmcd
#
# Track frame offsets: 
#        150
#        25040
#        43920
#        77955
#        103000
#        127205
#        155355
#        183780
#        226070
#        266700
#        298380
#
# Disc length: 4549 seconds
#
# Revision: 0
# Processed by: cddbd v1.4PL0 Copyright (c) Steve Scherf et al.
# Submitted via: ExactAudioCopy v0.90b4
#
DISCID=9911c30b
DTITLE=Van Morrison - October In The Rain, disc 1
DYEAR=1999
DGENRE=Celtic
TTITLE0=Did Ye Get Healed ?
TTITLE1=Back On Top
TTITLE2=Moondance > My Funny Valentine
TTITLE3=In The Midnight
TTITLE4=Goin' Down Geneva > Brand New Cadillac
TTITLE5=Vanlose Stairway > Trans-Euro Train
TTITLE6=When The Leaves Come Falling Down
TTITLE7=In The Afternoon > Joe Turner Sings > Don't You Get Me High > 
TTITLE7=Sex Machine
TTITLE8=I'm Not Feeling It Anymore
TTITLE9=Stormy Monday
TTITLE10=And The Healing Has Begun
EXTD=
EXTT0=
EXTT1=
EXTT2=
EXTT3=
EXTT4=
EXTT5=
EXTT6=
EXTT7=
EXTT8=
EXTT9=
EXTT10=
PLAYORDER=
